<?xml version="1.0" standalone="no"?>
<!DOCTYPE svg PUBLIC "-//W3C//DTD SVG 20010904//EN"
 "http://www.w3.org/TR/2001/REC-SVG-20010904/DTD/svg10.dtd">
<svg version="1.0" xmlns="http://www.w3.org/2000/svg"
 width="500.000000pt" height="500.000000pt" viewBox="0 0 500.000000 500.000000"
 preserveAspectRatio="xMidYMid meet">
<metadata>
Created by potrace 1.14, written by Peter Selinger 2001-2017
</metadata>
<g transform="translate(0.000000,500.000000) scale(0.100000,-0.100000)"
fill="#000000" stroke="none">
<path d="M280 2590 l0 -1060 225 0 225 0 2 714 3 714 24 26 c51 54 139 23 155
-55 3 -18 6 -339 6 -715 l0 -684 221 0 220 0 -3 748 c-4 741 -4 748 -26 814
-30 88 -76 156 -135 195 -64 43 -115 56 -212 57 -72 1 -86 -2 -135 -30 -35
-20 -66 -48 -87 -79 l-33 -47 0 231 0 231 -225 0 -225 0 0 -1060z"/>
<path d="M3119 3278 c-1 -205 -3 -364 -5 -353 -2 11 -9 45 -15 75 -15 76 -74
184 -123 226 -97 84 -207 118 -381 118 -186 -1 -315 -45 -422 -146 l-53 -51 0
103 0 103 -52 -7 c-98 -13 -170 -58 -219 -134 l-28 -45 -3 79 -3 79 -217 3
-218 2 0 -900 0 -900 220 0 220 0 0 695 0 694 28 15 c27 14 164 46 197 46 12
0 15 -15 15 -87 0 -98 19 -193 51 -255 34 -66 121 -150 306 -294 230 -179 253
-211 253 -352 0 -66 -4 -84 -21 -106 -18 -23 -27 -27 -67 -24 -36 2 -49 9 -66
31 -18 25 -22 47 -26 165 l-5 137 -215 0 -215 0 -3 -103 c-11 -392 163 -582
531 -582 129 0 215 18 302 64 107 56 187 155 221 276 11 41 12 27 13 -137 l1
-183 225 0 225 0 2 714 3 714 24 26 c51 54 139 23 155 -55 3 -18 6 -339 6
-715 l0 -684 221 0 220 0 -3 748 c-4 741 -4 748 -26 814 -30 88 -76 156 -135
195 -64 43 -115 56 -212 57 -72 1 -86 -2 -135 -30 -35 -20 -66 -48 -87 -79
l-33 -47 0 231 0 231 -225 0 -225 0 -1 -372z m-497 -288 c29 -22 48 -85 48
-154 l0 -46 225 0 225 0 -1 -307 0 -308 -18 55 c-53 164 -119 235 -441 473
-139 102 -162 132 -163 209 -1 43 3 54 27 74 33 29 65 30 98 4z"/>
<path d="M4505 1984 c-91 -23 -150 -66 -188 -138 -17 -32 -22 -58 -22 -116 0
-88 22 -137 81 -190 53 -46 99 -63 174 -64 144 -1 252 107 252 253 0 76 -8
100 -51 158 -49 67 -171 115 -246 97z"/>
</g>
</svg>
